<svg width="30" height="35" viewBox="0 0 30 35" fill="none" xmlns="http://www.w3.org/2000/svg">
<path fill-rule="evenodd" clip-rule="evenodd" d="M19.4447 14.7932L24.7576 14.954C26.0528 17.3948 26.0767 17.3949 27.6614 20.0879L29.7002 23.9219C29.8478 24.2671 30.1145 24.5975 29.9463 25.0957L20.3097 25.1218C20.3293 24.4234 20.2002 23.9607 20.0008 23.609C18.4019 20.8209 17.0074 18.2916 15.2041 15.2446C16.4929 14.5869 18.057 14.8568 19.4447 14.7932Z" fill="#E1E1E6"/>
<path fill-rule="evenodd" clip-rule="evenodd" d="M12.3295 0.00303942L17.5653 0.163834C18.8417 2.60474 18.8652 2.60498 20.4271 5.29807L22.4362 9.13249C22.5817 9.47753 22.8445 9.80802 22.6786 10.3063L13.1819 10.3324C13.2012 9.63399 13.0739 9.1711 12.8775 8.81944C11.3018 6.03109 9.92748 3.50167 8.15039 0.454395C9.42051 -0.203215 10.962 0.0666597 12.3295 0.00303942Z" fill="#E1E1E6"/>
<path fill-rule="evenodd" clip-rule="evenodd" d="M15.0332 25.1931L10.3174 34.6349C10.2103 34.9448 10.0448 34.9587 9.88484 35L0 34.9219L0.103027 34.6088L0.720806 34.5566L5.27201 25.9234C5.43581 25.4355 5.40913 25.3498 5.41615 25.1931H15.0332ZM29.9092 25.1772L25.1933 34.619C25.0863 34.9289 24.9208 34.9428 24.7608 34.9841L14.8761 34.906L14.979 34.5929L15.5969 34.5407L20.148 25.9075C20.3118 25.4196 20.2851 25.334 20.2921 25.1772H29.9092Z" fill="#A9A9B2"/>
<path fill-rule="evenodd" clip-rule="evenodd" d="M0.185547 14.8905L4.57191 14.8123L7.24898 19.8201L7.76383 19.794L7.80504 20.0288L12.7886 20.1069L14.8274 23.941C14.9749 24.2861 15.2416 24.6165 15.0734 25.1148L5.43686 25.1409C5.45642 24.4425 5.32728 23.9797 5.12787 23.6281L0.762116 15.3599L0.185547 14.8905Z" fill="#E1E1E6"/>
<path fill-rule="evenodd" clip-rule="evenodd" d="M22.6354 10.392L20.4409 14.7557C18.6674 14.9062 15.9284 14.5011 15.1715 15.237L12.7869 20.0133L7.85953 19.9496L7.8374 19.7972C7.97262 19.7765 8.06624 19.7563 8.16671 19.713L13.1638 10.428L22.6354 10.392Z" fill="#A9A9B2"/>
</svg>
